<svg width="368" height="368" viewBox="0 0 368 368" fill="none" xmlns="http://www.w3.org/2000/svg">
<path d="M168.331 72.5493C169.515 71.3736 171.539 69.8913 172.921 69.2268C174.544 68.4199 176.331 68 178.144 68H222.025C267.28 68 268.761 68 271.87 69.0223C273.646 69.5846 276.41 70.9136 278.039 72.0381C279.667 73.1116 282.234 75.3606 283.714 77.0475C285.195 78.7343 287.169 81.5967 288.008 83.3858C288.896 85.1748 289.932 88.0373 290.377 89.7241C290.771 91.4109 291.117 94.7334 291.117 97.1359C291.117 99.5383 290.771 102.759 290.377 104.292C289.982 105.826 288.945 108.586 288.057 110.426C287.021 112.573 285.244 115.026 282.974 117.378C280.753 119.678 278.285 121.62 276.065 122.796C274.14 123.818 271.623 124.943 270.389 125.301C268.747 125.801 257.127 126.007 178.597 126.495C175.188 126.516 171.753 127.009 168.479 127.959C165.765 128.725 161.126 130.565 158.115 132.099C155.154 133.581 150.91 136.188 148.739 137.875C146.567 139.562 143.261 142.629 141.435 144.724C139.609 146.82 137.042 150.143 135.809 152.085C134.525 154.027 132.65 157.503 131.663 159.752C130.627 162.002 129.245 165.784 128.603 168.186C127.912 170.589 127.073 174.832 126.728 177.643C126.284 181.579 126.284 184.083 126.679 188.633C127.024 191.853 127.715 196.351 128.307 198.6C128.85 200.849 130.133 204.632 131.12 207.034C132.157 209.437 134.279 213.475 135.907 215.98C137.536 218.484 140.645 222.42 142.816 224.669C144.988 226.918 148.442 229.934 150.466 231.416C152.489 232.848 156.043 234.943 158.362 236.119C160.682 237.244 164.432 238.726 166.752 239.442C169.071 240.106 172.674 240.924 174.796 241.231C177.313 241.588 194.487 241.793 226.615 241.793C265.207 241.793 275.226 241.946 277.792 242.509C279.569 242.917 282.53 243.991 284.454 244.911C286.971 246.189 288.995 247.773 291.857 250.738C294.423 253.396 296.299 255.799 297.138 257.639C297.829 259.172 298.766 261.728 299.21 263.261C299.704 265.102 300 267.964 300 271.44C300 274.865 299.704 277.829 299.21 279.618C298.766 281.152 297.73 283.81 296.891 285.497C296.003 287.184 293.88 290.097 292.104 291.937C285.586 298.826 275.169 299.822 265.685 299.846L220.841 299.962C163.988 300.065 161.323 300.014 155.648 299.093C152.391 298.531 147.011 297.253 143.705 296.231C140.349 295.26 135.019 293.266 131.86 291.886C128.653 290.455 124.606 288.461 122.829 287.439C121.053 286.468 117.499 284.219 114.933 282.481C112.367 280.743 108.271 277.574 105.803 275.427C103.335 273.331 99.338 269.446 96.9198 266.788C94.4522 264.13 91.0964 260.143 89.4678 257.894C87.7898 255.645 85.4703 252.22 84.2365 250.227C83.0028 248.233 81.1274 244.911 79.9923 242.815C78.8573 240.719 76.9326 236.477 75.6988 233.359C74.4157 230.241 72.7377 225.436 71.9481 222.625C71.1585 219.813 70.0234 215.213 69.4312 212.401C68.6325 208.411 68.3705 205.301 68.0492 185.389C68.016 183.33 68.4736 181.28 69.3818 179.432C70.1221 177.898 71.5533 175.752 72.5897 174.678C73.626 173.656 75.6494 172.174 77.0313 171.356C79.4001 170.129 80.1404 169.976 84.8288 169.976C89.5171 169.976 90.2574 170.129 92.5769 171.356C94.0081 172.174 96.1302 173.758 97.2653 174.934C98.4003 176.161 99.8809 178.41 100.522 179.943C101.509 182.192 101.904 184.39 102.398 190.677C102.793 195.022 103.434 200.44 103.878 202.689C104.322 204.939 105.359 208.874 106.148 211.379C106.987 213.884 108.715 218.28 110.097 221.091C111.429 223.902 113.65 227.941 115.032 230.036C116.414 232.132 119.177 235.812 121.151 238.215C123.125 240.617 126.037 243.735 127.616 245.167C129.195 246.598 132.255 249.102 134.427 250.687C136.598 252.323 140.793 254.93 143.803 256.463C146.814 258.048 151.453 260.041 154.167 261.012C156.882 261.932 160.78 263.057 162.804 263.466C164.827 263.875 168.528 264.488 170.947 264.795C173.71 265.102 193.599 265.306 223.259 265.306C270.291 265.306 271.179 265.306 272.61 266.328C273.4 266.891 274.337 267.862 274.683 268.526C275.028 269.14 275.275 270.622 275.324 271.798C275.324 273.587 275.028 274.302 273.745 275.734C272.413 277.114 271.574 277.523 269.402 277.829C267.922 277.983 244.579 278.085 217.583 277.932C170.453 277.727 168.282 277.676 163.05 276.654C160.04 276.091 154.957 274.762 151.7 273.74C148.442 272.718 143.211 270.622 140.102 269.089C136.993 267.555 131.86 264.488 128.751 262.341C125.149 259.837 120.954 256.31 117.203 252.527C113.995 249.307 109.652 244.298 107.58 241.435C105.507 238.573 102.793 234.33 101.509 231.979C100.226 229.627 98.0549 224.976 96.7717 221.602C95.4393 218.229 93.7613 213.168 93.0704 210.357C92.3301 207.545 91.4418 202.894 90.9977 199.98C90.6028 197.118 90.2574 193.335 90.2574 191.546C90.2574 189.808 90.0106 187.508 89.7639 186.435C89.4678 185.361 88.6782 184.083 87.8885 183.521C87.0989 182.857 85.8158 182.448 84.7301 182.499C80.8895 182.499 79.6927 187.661 79.7727 191.501L79.7949 192.569C79.8443 196.453 80.2391 202.025 80.6833 204.99C81.0781 207.954 81.769 211.737 82.1638 213.424C82.608 215.111 83.3976 218.075 83.9404 220.069C84.5327 222.062 85.8651 225.845 86.9509 228.503C88.0859 231.161 89.9613 235.199 91.1457 237.448C92.3795 239.697 94.4522 243.275 95.8341 245.371C97.1666 247.467 99.6835 250.943 101.361 253.038C103.039 255.134 106.494 258.917 109.06 261.421C111.626 263.875 115.278 267.146 117.154 268.577C119.029 270.06 122.286 272.309 124.31 273.638C126.333 274.916 130.577 277.267 133.686 278.801C136.796 280.334 141.484 282.328 144.05 283.197C145.328 283.629 147.157 284.176 149.806 284.875C156.932 286.756 164.302 287.503 171.673 287.53L217.83 287.695C274.091 287.848 275.127 287.848 277.792 286.826C279.272 286.263 281.592 284.832 282.875 283.605C284.306 282.328 285.836 280.232 286.576 278.596C287.465 276.654 287.909 274.66 288.057 272.207C288.205 269.395 288.008 268.015 287.119 265.562C286.428 263.67 285.145 261.575 283.763 260.041C279.665 255.457 272.867 254.808 266.718 254.772L224.493 254.521L223.909 254.518C173.704 254.265 172.853 254.261 168.232 253.141C165.666 252.527 161.866 251.403 159.843 250.687C157.819 249.971 154.365 248.438 152.193 247.313C150.022 246.189 146.37 243.991 144.05 242.457C141.583 240.771 137.635 237.295 134.377 233.921C130.923 230.343 127.764 226.356 125.692 223.136C123.866 220.324 121.645 216.286 120.707 214.19C119.769 212.095 118.289 208.108 117.45 205.348C116.611 202.638 115.575 198.242 115.18 195.636C114.736 192.978 114.439 187.662 114.439 183.266C114.439 177.847 114.736 174.269 115.377 170.998C115.871 168.493 116.858 164.455 117.647 162.053C118.388 159.65 119.819 155.868 120.855 153.619C121.892 151.369 123.816 147.791 125.149 145.696C126.481 143.6 128.998 140.124 130.775 138.028C132.502 135.933 135.611 132.763 137.635 130.974C139.658 129.185 143.014 126.578 145.037 125.198C147.061 123.767 150.318 121.876 152.193 120.905C154.068 119.985 156.882 118.707 158.362 118.144C159.843 117.531 162.853 116.56 165.024 115.998C167.196 115.384 170.108 114.669 171.44 114.413C172.97 114.055 191.329 113.748 220.545 113.544L221.433 113.538C266.208 113.237 267.245 113.23 269.402 112.164C270.636 111.602 272.61 110.221 273.844 109.046C275.226 107.768 276.608 105.774 277.496 103.73C278.68 101.123 278.976 99.7428 278.976 96.8803C279.026 93.8645 278.779 92.7399 277.447 89.9797C276.608 88.1395 275.078 85.8904 273.992 84.9192C269.886 81.0715 263.765 80.5131 258.138 80.4933L223.012 80.37C179.978 80.2677 179.336 80.2677 177.757 81.29C176.819 81.9034 175.98 82.8746 175.832 83.6925C175.635 84.5103 175.734 85.7882 175.931 86.6572C176.227 87.6284 177.017 88.4973 178.103 89.0596C179.682 89.9286 182.742 89.9797 220.15 89.9797C257.755 89.9797 260.618 90.0308 261.802 90.8487C262.542 91.3598 263.431 92.3821 263.776 93.1489C264.171 93.9667 264.467 95.4491 264.467 96.4714C264.467 97.5448 264.122 98.9249 263.727 99.5383C263.332 100.203 262.296 101.072 261.506 101.481C260.223 102.145 254.399 102.247 218.324 102.247C178.3 102.247 176.523 102.196 174.056 101.276C172.575 100.714 170.256 99.1805 168.825 97.8004C167.245 96.318 165.617 94.2223 164.876 92.5355C163.741 90.0819 163.544 89.0596 163.544 84.8681C163.544 80.5744 163.692 79.7055 164.926 77.303C165.666 75.8718 167.196 73.6738 168.331 72.5493Z" fill="white"/>
</svg>
