<svg width="486" height="496" viewBox="0 0 486 496" fill="none" xmlns="http://www.w3.org/2000/svg">
<path d="M227.331 72.5493C228.515 71.3736 230.539 69.8913 231.921 69.2268C233.544 68.4199 235.331 68 237.144 68H281.025C326.28 68 327.761 68 330.87 69.0223C332.646 69.5846 335.41 70.9136 337.039 72.0381C338.667 73.1116 341.234 75.3606 342.714 77.0475C344.195 78.7343 346.169 81.5967 347.008 83.3858C347.896 85.1748 348.932 88.0373 349.377 89.7241C349.771 91.4109 350.117 94.7334 350.117 97.1359C350.117 99.5383 349.771 102.759 349.377 104.292C348.982 105.826 347.945 108.586 347.057 110.426C346.021 112.573 344.244 115.026 341.974 117.378C339.753 119.678 337.285 121.62 335.065 122.796C333.14 123.818 330.623 124.943 329.389 125.301C327.747 125.801 316.127 126.007 237.597 126.495C234.188 126.516 230.753 127.009 227.479 127.959C224.765 128.725 220.126 130.565 217.115 132.099C214.154 133.581 209.91 136.188 207.739 137.875C205.567 139.562 202.261 142.629 200.435 144.724C198.609 146.82 196.042 150.143 194.809 152.085C193.525 154.027 191.65 157.503 190.663 159.752C189.627 162.002 188.245 165.784 187.603 168.186C186.912 170.589 186.073 174.832 185.728 177.643C185.284 181.579 185.284 184.083 185.679 188.633C186.024 191.853 186.715 196.351 187.307 198.6C187.85 200.849 189.133 204.632 190.12 207.034C191.157 209.437 193.279 213.475 194.907 215.98C196.536 218.484 199.645 222.42 201.816 224.669C203.988 226.918 207.442 229.934 209.466 231.416C211.489 232.848 215.043 234.943 217.362 236.119C219.682 237.244 223.432 238.726 225.752 239.442C228.071 240.106 231.674 240.924 233.796 241.231C236.313 241.588 253.487 241.793 285.615 241.793C324.207 241.793 334.226 241.946 336.792 242.509C338.569 242.917 341.53 243.991 343.454 244.911C345.971 246.189 347.995 247.773 350.857 250.738C353.423 253.396 355.299 255.799 356.138 257.639C356.829 259.172 357.766 261.728 358.21 263.261C358.704 265.102 359 267.964 359 271.44C359 274.865 358.704 277.829 358.21 279.618C357.766 281.152 356.73 283.81 355.891 285.497C355.003 287.184 352.88 290.097 351.104 291.937C344.586 298.826 334.169 299.822 324.685 299.846L279.841 299.962C222.988 300.065 220.323 300.014 214.648 299.093C211.391 298.531 206.011 297.253 202.705 296.231C199.349 295.26 194.019 293.266 190.86 291.886C187.653 290.455 183.606 288.461 181.829 287.439C180.053 286.468 176.499 284.219 173.933 282.481C171.367 280.743 167.271 277.574 164.803 275.427C162.335 273.331 158.338 269.446 155.92 266.788C153.452 264.13 150.096 260.143 148.468 257.894C146.79 255.645 144.47 252.22 143.237 250.227C142.003 248.233 140.127 244.911 138.992 242.815C137.857 240.719 135.933 236.477 134.699 233.359C133.416 230.241 131.738 225.436 130.948 222.625C130.158 219.813 129.023 215.213 128.431 212.401C127.633 208.411 127.371 205.301 127.049 185.389C127.016 183.33 127.474 181.28 128.382 179.432C129.122 177.898 130.553 175.752 131.59 174.678C132.626 173.656 134.649 172.174 136.031 171.356C138.4 170.129 139.14 169.976 143.829 169.976C148.517 169.976 149.257 170.129 151.577 171.356C153.008 172.174 155.13 173.758 156.265 174.934C157.4 176.161 158.881 178.41 159.522 179.943C160.509 182.192 160.904 184.39 161.398 190.677C161.793 195.022 162.434 200.44 162.878 202.689C163.322 204.939 164.359 208.874 165.148 211.379C165.987 213.884 167.715 218.28 169.097 221.091C170.429 223.902 172.65 227.941 174.032 230.036C175.414 232.132 178.177 235.812 180.151 238.215C182.125 240.617 185.037 243.735 186.616 245.167C188.195 246.598 191.255 249.102 193.427 250.687C195.598 252.323 199.793 254.93 202.803 256.463C205.814 258.048 210.453 260.041 213.167 261.012C215.882 261.932 219.78 263.057 221.804 263.466C223.827 263.875 227.528 264.488 229.947 264.795C232.71 265.102 252.599 265.306 282.259 265.306C329.291 265.306 330.179 265.306 331.61 266.328C332.4 266.891 333.337 267.862 333.683 268.526C334.028 269.14 334.275 270.622 334.324 271.798C334.324 273.587 334.028 274.302 332.745 275.734C331.413 277.114 330.574 277.523 328.402 277.829C326.922 277.983 303.579 278.085 276.583 277.932C229.453 277.727 227.282 277.676 222.05 276.654C219.04 276.091 213.957 274.762 210.7 273.74C207.442 272.718 202.211 270.622 199.102 269.089C195.993 267.555 190.86 264.488 187.751 262.341C184.149 259.837 179.954 256.31 176.203 252.527C172.995 249.307 168.652 244.298 166.58 241.435C164.507 238.573 161.793 234.33 160.509 231.979C159.226 229.627 157.055 224.976 155.772 221.602C154.439 218.229 152.761 213.168 152.07 210.357C151.33 207.545 150.442 202.894 149.998 199.98C149.603 197.118 149.257 193.335 149.257 191.546C149.257 189.808 149.011 187.508 148.764 186.435C148.468 185.361 147.678 184.083 146.889 183.521C146.099 182.857 144.816 182.448 143.73 182.499C139.89 182.499 138.693 187.661 138.773 191.501L138.795 192.569C138.844 196.453 139.239 202.025 139.683 204.99C140.078 207.954 140.769 211.737 141.164 213.424C141.608 215.111 142.398 218.075 142.94 220.069C143.533 222.062 144.865 225.845 145.951 228.503C147.086 231.161 148.961 235.199 150.146 237.448C151.379 239.697 153.452 243.275 154.834 245.371C156.167 247.467 158.683 250.943 160.361 253.038C162.039 255.134 165.494 258.917 168.06 261.421C170.626 263.875 174.278 267.146 176.154 268.577C178.029 270.06 181.286 272.309 183.31 273.638C185.333 274.916 189.577 277.267 192.686 278.801C195.796 280.334 200.484 282.328 203.05 283.197C204.328 283.629 206.157 284.176 208.806 284.875C215.932 286.756 223.302 287.503 230.673 287.53L276.83 287.695C333.091 287.848 334.127 287.848 336.792 286.826C338.272 286.263 340.592 284.832 341.875 283.605C343.306 282.328 344.836 280.232 345.576 278.596C346.465 276.654 346.909 274.66 347.057 272.207C347.205 269.395 347.008 268.015 346.119 265.562C345.428 263.67 344.145 261.575 342.763 260.041C338.665 255.457 331.867 254.808 325.718 254.772L283.493 254.521L282.909 254.518C232.704 254.265 231.853 254.261 227.232 253.141C224.666 252.527 220.866 251.403 218.843 250.687C216.819 249.971 213.365 248.438 211.193 247.313C209.022 246.189 205.37 243.991 203.05 242.457C200.583 240.771 196.635 237.295 193.377 233.921C189.923 230.343 186.764 226.356 184.692 223.136C182.866 220.324 180.645 216.286 179.707 214.19C178.769 212.095 177.289 208.108 176.45 205.348C175.611 202.638 174.575 198.242 174.18 195.636C173.736 192.978 173.439 187.662 173.439 183.266C173.439 177.847 173.736 174.269 174.377 170.998C174.871 168.493 175.858 164.455 176.647 162.053C177.388 159.65 178.819 155.868 179.855 153.619C180.892 151.369 182.816 147.791 184.149 145.696C185.481 143.6 187.998 140.124 189.775 138.028C191.502 135.933 194.611 132.763 196.635 130.974C198.658 129.185 202.014 126.578 204.037 125.198C206.061 123.767 209.318 121.876 211.193 120.905C213.068 119.985 215.882 118.707 217.362 118.144C218.843 117.531 221.853 116.56 224.024 115.998C226.196 115.384 229.108 114.669 230.44 114.413C231.97 114.055 250.329 113.748 279.545 113.544L280.433 113.538C325.208 113.237 326.245 113.23 328.402 112.164C329.636 111.602 331.61 110.221 332.844 109.046C334.226 107.768 335.608 105.774 336.496 103.73C337.68 101.123 337.976 99.7428 337.976 96.8803C338.026 93.8645 337.779 92.7399 336.447 89.9797C335.608 88.1395 334.078 85.8904 332.992 84.9192C328.886 81.0715 322.765 80.5131 317.138 80.4933L282.012 80.37C238.978 80.2677 238.336 80.2677 236.757 81.29C235.819 81.9034 234.98 82.8746 234.832 83.6925C234.635 84.5103 234.734 85.7882 234.931 86.6572C235.227 87.6284 236.017 88.4973 237.103 89.0596C238.682 89.9286 241.742 89.9797 279.15 89.9797C316.755 89.9797 319.618 90.0308 320.802 90.8487C321.542 91.3598 322.431 92.3821 322.776 93.1489C323.171 93.9667 323.467 95.4491 323.467 96.4714C323.467 97.5448 323.122 98.9249 322.727 99.5383C322.332 100.203 321.296 101.072 320.506 101.481C319.223 102.145 313.399 102.247 277.324 102.247C237.3 102.247 235.523 102.196 233.056 101.276C231.575 100.714 229.256 99.1805 227.825 97.8004C226.245 96.318 224.617 94.2223 223.876 92.5355C222.741 90.0819 222.544 89.0596 222.544 84.8681C222.544 80.5744 222.692 79.7055 223.926 77.303C224.666 75.8718 226.196 73.6738 227.331 72.5493Z" fill="white"/>
<path d="M67.6211 384.208C67.6211 377.552 69.0611 371.632 71.9411 366.448C74.8211 361.2 78.8211 357.136 83.9411 354.256C89.1251 351.312 94.9811 349.84 101.509 349.84C109.509 349.84 116.357 351.952 122.053 356.176C127.749 360.4 131.557 366.16 133.477 373.456H115.429C114.085 370.64 112.165 368.496 109.669 367.024C107.237 365.552 104.453 364.816 101.317 364.816C96.2611 364.816 92.1651 366.576 89.0291 370.096C85.8931 373.616 84.3251 378.32 84.3251 384.208C84.3251 390.096 85.8931 394.8 89.0291 398.32C92.1651 401.84 96.2611 403.6 101.317 403.6C104.453 403.6 107.237 402.864 109.669 401.392C112.165 399.92 114.085 397.776 115.429 394.96H133.477C131.557 402.256 127.749 408.016 122.053 412.24C116.357 416.4 109.509 418.48 101.509 418.48C94.9811 418.48 89.1251 417.04 83.9411 414.16C78.8211 411.216 74.8211 407.152 71.9411 401.968C69.0611 396.784 67.6211 390.864 67.6211 384.208ZM196.426 364.432V418H180.01V410.704C178.346 413.072 176.074 414.992 173.194 416.464C170.378 417.872 167.242 418.576 163.786 418.576C159.69 418.576 156.074 417.68 152.938 415.888C149.802 414.032 147.37 411.376 145.642 407.92C143.914 404.464 143.05 400.4 143.05 395.728V364.432H159.37V393.52C159.37 397.104 160.298 399.888 162.154 401.872C164.01 403.856 166.506 404.848 169.642 404.848C172.842 404.848 175.37 403.856 177.226 401.872C179.082 399.888 180.01 397.104 180.01 393.52V364.432H196.426ZM224.634 372.016C226.17 369.52 228.378 367.504 231.258 365.968C234.138 364.432 237.434 363.664 241.146 363.664C245.562 363.664 249.562 364.784 253.146 367.024C256.73 369.264 259.546 372.464 261.594 376.624C263.706 380.784 264.762 385.616 264.762 391.12C264.762 396.624 263.706 401.488 261.594 405.712C259.546 409.872 256.73 413.104 253.146 415.408C249.562 417.648 245.562 418.768 241.146 418.768C237.37 418.768 234.074 418.032 231.258 416.56C228.442 415.024 226.234 413.008 224.634 410.512V418H208.218V346.96H224.634V372.016ZM248.058 391.12C248.058 387.024 246.906 383.824 244.602 381.52C242.362 379.152 239.578 377.968 236.25 377.968C232.986 377.968 230.202 379.152 227.898 381.52C225.658 383.888 224.538 387.12 224.538 391.216C224.538 395.312 225.658 398.544 227.898 400.912C230.202 403.28 232.986 404.464 236.25 404.464C239.514 404.464 242.298 403.28 244.602 400.912C246.906 398.48 248.058 395.216 248.058 391.12ZM289.79 346.96V418H273.374V346.96H289.79ZM356.406 364.432L322.806 443.44H305.142L317.43 416.176L295.638 364.432H313.974L326.358 397.936L338.646 364.432H356.406ZM359.079 391.12C359.079 385.616 360.103 380.784 362.151 376.624C364.263 372.464 367.111 369.264 370.695 367.024C374.279 364.784 378.279 363.664 382.695 363.664C386.471 363.664 389.767 364.432 392.583 365.968C395.463 367.504 397.671 369.52 399.207 372.016V364.432H415.623V418H399.207V410.416C397.607 412.912 395.367 414.928 392.487 416.464C389.671 418 386.375 418.768 382.599 418.768C378.247 418.768 374.279 417.648 370.695 415.408C367.111 413.104 364.263 409.872 362.151 405.712C360.103 401.488 359.079 396.624 359.079 391.12ZM399.207 391.216C399.207 387.12 398.055 383.888 395.751 381.52C393.511 379.152 390.759 377.968 387.495 377.968C384.231 377.968 381.447 379.152 379.143 381.52C376.903 383.824 375.783 387.024 375.783 391.12C375.783 395.216 376.903 398.48 379.143 400.912C381.447 403.28 384.231 404.464 387.495 404.464C390.759 404.464 393.511 403.28 395.751 400.912C398.055 398.544 399.207 395.312 399.207 391.216Z" fill="white"/>
</svg>
